<svg xmlns="http://www.w3.org/2000/svg" xmlns:xlink="http://www.w3.org/1999/xlink" viewBox="0 0 26 26"><defs><style>.cls-1,.cls-2{fill:none;}.cls-2{stroke:#fff;stroke-miterlimit:10;stroke-width:2px;}.cls-3{clip-path:url(#clip-path);}.cls-4{clip-path:url(#clip-path-2);}.cls-5{fill:#fff;}</style><clipPath id="clip-path" transform="translate(-994 -8)"><path class="cls-1" d="M1010.58,15h-1.64a2.92,2.92,0,0,0-3,3.2v1.47h-1.65a.27.27,0,0,0-.26.27v2.14a.26.26,0,0,0,.26.26h1.65v5.39a.26.26,0,0,0,.26.27h2.15a.27.27,0,0,0,.26-.27V22.34h1.93a.26.26,0,0,0,.25-.26V19.94a.27.27,0,0,0-.08-.19.25.25,0,0,0-.18-.08h-1.93V18.42c0-.6.14-.9.9-.9h1.1a.26.26,0,0,0,.26-.27v-2A.26.26,0,0,0,1010.58,15Z"/></clipPath><clipPath id="clip-path-2" transform="translate(-994 -8)"><rect class="cls-1" width="1440" height="3839"/></clipPath></defs><title>icon facebook</title><g id="Layer_2" data-name="Layer 2"><g id="Layer_1-2" data-name="Layer 1"><circle class="cls-2" cx="13" cy="13" r="12"/><g class="cls-3"><g class="cls-4"><rect class="cls-5" x="5" y="2" width="16.84" height="23"/></g></g></g></g></svg>