<svg xmlns="http://www.w3.org/2000/svg" xmlns:xlink="http://www.w3.org/1999/xlink" viewBox="0 0 26 26"><defs><style>.cls-1,.cls-7{fill:none;}.cls-2{clip-path:url(#clip-path);}.cls-3{clip-path:url(#clip-path-2);}.cls-4{fill:#fff;}.cls-5{clip-path:url(#clip-path-3);}.cls-6{clip-path:url(#clip-path-5);}.cls-7{stroke:#fff;stroke-miterlimit:10;stroke-width:2px;}</style><clipPath id="clip-path" transform="translate(-1063 -8)"><path class="cls-1" d="M1081.59,24.06a2.53,2.53,0,0,1-2.53,2.53h-6.12a2.53,2.53,0,0,1-2.53-2.53V17.94a2.53,2.53,0,0,1,2.53-2.53h6.12a2.53,2.53,0,0,1,2.53,2.53Zm-2.53-9.73h-6.12a3.61,3.61,0,0,0-3.61,3.61v6.12a3.61,3.61,0,0,0,3.61,3.61h6.12a3.61,3.61,0,0,0,3.61-3.61V17.94A3.61,3.61,0,0,0,1079.06,14.33Z"/></clipPath><clipPath id="clip-path-2" transform="translate(-1063 -8)"><rect class="cls-1" width="1440" height="3839"/></clipPath><clipPath id="clip-path-3" transform="translate(-1063 -8)"><path class="cls-1" d="M1076.31,22.87a1.94,1.94,0,0,1-1.42-.36,1.92,1.92,0,0,1-.76-1.26,2,2,0,0,1,.36-1.42,1.91,1.91,0,0,1,1.26-.75l.28,0,.28,0a1.92,1.92,0,0,1,0,3.79Zm2.67-2.34a3,3,0,0,0-2.51-2.51,2.6,2.6,0,0,0-.88,0A3,3,0,0,0,1076,24a3.4,3.4,0,0,0,.45,0,3,3,0,0,0,2.51-3.4Z"/></clipPath><clipPath id="clip-path-5" transform="translate(-1063 -8)"><path class="cls-1" d="M1079.75,17.25a.53.53,0,1,0,.16.38A.55.55,0,0,0,1079.75,17.25Z"/></clipPath></defs><title>icon instagram</title><g id="Layer_2" data-name="Layer 2"><g id="Layer_1-2" data-name="Layer 1"><g class="cls-2"><g class="cls-3"><rect class="cls-4" x="1.33" y="1.33" width="23.33" height="23.33"/></g></g><g class="cls-5"><g class="cls-3"><rect class="cls-4" x="5.04" y="4.98" width="15.98" height="15.98"/></g></g><g class="cls-6"><g class="cls-3"><rect class="cls-4" x="10.83" y="4.09" width="11.08" height="11.08"/></g></g><circle class="cls-7" cx="13" cy="13" r="12"/></g></g></svg>