<svg xmlns="http://www.w3.org/2000/svg" xmlns:xlink="http://www.w3.org/1999/xlink" viewBox="0 0 26 26"><defs><style>.cls-1,.cls-2{fill:none;}.cls-2{stroke:#fff;stroke-miterlimit:10;stroke-width:2px;}.cls-3{clip-path:url(#clip-path);}.cls-4{clip-path:url(#clip-path-2);}.cls-5{fill:#fff;}</style><clipPath id="clip-path" transform="translate(-1098 -8)"><path class="cls-1" d="M1111.11,21.82h3.16a4,4,0,1,1-1.09-4.32.44.44,0,0,0,.6,0l1.16-1.09a.44.44,0,0,0,0-.63,6.41,6.41,0,0,0-4.33-1.78,6.48,6.48,0,1,0,6.34,6.85c0-.05,0-1.49,0-1.49h-5.85a.44.44,0,0,0-.44.43v1.6A.44.44,0,0,0,1111.11,21.82Z"/></clipPath><clipPath id="clip-path-2" transform="translate(-1098 -8)"><rect class="cls-1" width="1440" height="3839"/></clipPath></defs><title>icon Google</title><g id="Layer_2" data-name="Layer 2"><g id="Layer_1-2" data-name="Layer 1"><circle class="cls-2" cx="13" cy="13" r="12"/><g class="cls-3"><g class="cls-4"><rect class="cls-5" x="1" y="1" width="22.96" height="22.96"/></g></g></g></g></svg>