<svg xmlns="http://www.w3.org/2000/svg" xmlns:xlink="http://www.w3.org/1999/xlink" viewBox="0 0 54 54"><defs><style>.cls-1,.cls-5{fill:none;}.cls-2{clip-path:url(#clip-path);}.cls-3{clip-path:url(#clip-path-2);}.cls-4{fill:#fff;}.cls-5{stroke:#f27380;stroke-miterlimit:10;stroke-width:4px;}.cls-6{clip-path:url(#clip-path-5);}.cls-7{fill:#f27380;}.cls-8{clip-path:url(#clip-path-7);}.cls-9{fill:#d74c5b;}.cls-10{clip-path:url(#clip-path-9);}.cls-11{clip-path:url(#clip-path-11);}.cls-12{clip-path:url(#clip-path-13);}.cls-13{clip-path:url(#clip-path-15);}.cls-14{clip-path:url(#clip-path-17);}.cls-15{clip-path:url(#clip-path-19);}.cls-16{clip-path:url(#clip-path-21);}.cls-17{clip-path:url(#clip-path-23);}.cls-18{clip-path:url(#clip-path-25);}</style><clipPath id="clip-path" transform="translate(-221 -228)"><rect class="cls-1" x="223" y="230" width="50" height="50" rx="8" ry="8"/></clipPath><clipPath id="clip-path-2" transform="translate(-221 -228)"><rect class="cls-1" width="414" height="736"/></clipPath><clipPath id="clip-path-5" transform="translate(-221 -228)"><path class="cls-1" d="M264,240H231.36a1.35,1.35,0,0,0-1.36,1.36v27.28a1.35,1.35,0,0,0,1.36,1.36H264a1.35,1.35,0,0,0,1.36-1.36V241.36A1.35,1.35,0,0,0,264,240Z"/></clipPath><clipPath id="clip-path-7" transform="translate(-221 -228)"><path class="cls-1" d="M265.09,241.36v27.28a1.34,1.34,0,0,1-1.35,1.36H247.55V240h16.19A1.34,1.34,0,0,1,265.09,241.36Z"/></clipPath><clipPath id="clip-path-9" transform="translate(-221 -228)"><circle class="cls-1" cx="236.79" cy="247.08" r="1.42"/></clipPath><clipPath id="clip-path-11" transform="translate(-221 -228)"><circle class="cls-1" cx="242.17" cy="247.08" r="1.42"/></clipPath><clipPath id="clip-path-13" transform="translate(-221 -228)"><circle class="cls-1" cx="252.92" cy="247.08" r="1.42"/></clipPath><clipPath id="clip-path-15" transform="translate(-221 -228)"><circle class="cls-1" cx="258.58" cy="247.08" r="1.42"/></clipPath><clipPath id="clip-path-17" transform="translate(-221 -228)"><ellipse class="cls-1" cx="236.74" cy="263.21" rx="1.36" ry="1.42"/></clipPath><clipPath id="clip-path-19" transform="translate(-221 -228)"><ellipse class="cls-1" cx="242.17" cy="263.21" rx="1.36" ry="1.42"/></clipPath><clipPath id="clip-path-21" transform="translate(-221 -228)"><circle class="cls-1" cx="252.92" cy="263.21" r="1.42"/></clipPath><clipPath id="clip-path-23" transform="translate(-221 -228)"><circle class="cls-1" cx="258.58" cy="263.21" r="1.42"/></clipPath><clipPath id="clip-path-25" transform="translate(-221 -228)"><path class="cls-1" d="M255.69,251.48a1.33,1.33,0,0,0-1.13-.92l-4-.6-1.78-3.59a1.43,1.43,0,0,0-2.47,0L244.53,250l-4,.6a1.35,1.35,0,0,0-.77,2.31l2.91,2.81-.69,3.94a1.32,1.32,0,0,0,.55,1.33,1.29,1.29,0,0,0,1.43.11l3.59-1.87,3.59,1.87a1.27,1.27,0,0,0,1.42-.11,1.32,1.32,0,0,0,.55-1.33l-.68-3.94,2.9-2.81A1.34,1.34,0,0,0,255.69,251.48Z"/></clipPath></defs><title>Giải trí</title><g id="Layer_2" data-name="Layer 2"><g id="Layer_1-2" data-name="Layer 1"><g class="cls-2"><g class="cls-3"><rect class="cls-4" x="2" y="2" width="50" height="50" rx="8" ry="8"/></g></g><g class="cls-2"><g class="cls-3"><rect class="cls-5" x="2" y="2" width="50" height="50" rx="8" ry="8"/></g></g><g class="cls-6"><g class="cls-3"><rect class="cls-7" x="4" y="7" width="45.38" height="40"/></g></g><g class="cls-8"><g class="cls-3"><rect class="cls-9" x="21.55" y="7" width="27.55" height="40"/></g></g><g class="cls-10"><g class="cls-3"><rect class="cls-9" x="9.38" y="12.66" width="12.83" height="12.83"/></g></g><g class="cls-11"><g class="cls-3"><rect class="cls-9" x="14.75" y="12.66" width="12.83" height="12.83"/></g></g><g class="cls-12"><g class="cls-3"><rect class="cls-7" x="25.51" y="12.66" width="12.83" height="12.83"/></g></g><g class="cls-13"><g class="cls-3"><rect class="cls-7" x="31.17" y="12.66" width="12.83" height="12.83"/></g></g><g class="cls-14"><g class="cls-3"><rect class="cls-9" x="9.38" y="28.79" width="12.72" height="12.83"/></g></g><g class="cls-15"><g class="cls-3"><rect class="cls-9" x="14.81" y="28.79" width="12.72" height="12.83"/></g></g><g class="cls-16"><g class="cls-3"><rect class="cls-7" x="25.51" y="28.79" width="12.83" height="12.83"/></g></g><g class="cls-17"><g class="cls-3"><rect class="cls-7" x="31.17" y="28.79" width="12.83" height="12.83"/></g></g><g class="cls-18"><g class="cls-3"><rect class="cls-4" x="13.34" y="12.66" width="26.42" height="25.57"/></g></g></g></g></svg>