<svg xmlns="http://www.w3.org/2000/svg" xmlns:xlink="http://www.w3.org/1999/xlink" viewBox="0 0 35 35"><defs><style>.cls-1,.cls-2,.cls-6{fill:none;}.cls-2{clip-rule:evenodd;}.cls-3{clip-path:url(#clip-path);}.cls-4{clip-path:url(#clip-path-2);}.cls-5{fill:#fff;}.cls-6{stroke:#fff;stroke-miterlimit:10;stroke-width:1.5px;}.cls-7{clip-path:url(#clip-path-3);}.cls-8{fill:#f27380;}</style><clipPath id="clip-path" transform="translate(-1178 -3)"><circle class="cls-1" cx="1195.5" cy="20.5" r="12.5"/></clipPath><clipPath id="clip-path-2" transform="translate(-1178 -3)"><rect class="cls-1" width="1440" height="3839"/></clipPath><clipPath id="clip-path-3" transform="translate(-1178 -3)"><path class="cls-2" d="M1197.38,24.05a5.49,5.49,0,0,0,5.45-5.46,5.41,5.41,0,0,0-5.41-5.42,5.48,5.48,0,0,0-5.45,5.46,5.38,5.38,0,0,0,5.41,5.42Zm-10.22,3.34,4.75-4.75a6.69,6.69,0,0,1-1.3-4,6.81,6.81,0,0,1,11.61-4.85,6.74,6.74,0,0,1,2,4.8,6.85,6.85,0,0,1-6.82,6.82,6.66,6.66,0,0,1-4-1.31h0l-4.74,4.75a1,1,0,0,1-1,.29,1.06,1.06,0,0,1-.74-.74A1,1,0,0,1,1187.16,27.39Z"/></clipPath></defs><title>icon search</title><g id="Layer_2" data-name="Layer 2"><g id="Layer_1-2" data-name="Layer 1"><g class="cls-3"><g class="cls-4"><rect class="cls-5" width="35" height="35"/></g></g><circle class="cls-6" cx="17.5" cy="17.5" r="12.5"/><g class="cls-7"><rect class="cls-8" x="3.84" y="3.81" width="27.34" height="27.34"/></g></g></g></svg>