<svg xmlns="http://www.w3.org/2000/svg" xmlns:xlink="http://www.w3.org/1999/xlink" viewBox="0 0 26 26"><defs><style>.cls-1,.cls-2{fill:none;}.cls-2{stroke:#fff;stroke-miterlimit:10;stroke-width:2px;}.cls-3{clip-path:url(#clip-path);}.cls-4{clip-path:url(#clip-path-2);}.cls-5{fill:#fff;}</style><clipPath id="clip-path" transform="translate(-1029 -8)"><path class="cls-1" d="M1043.46,21.11l-3.55,1.81a.15.15,0,0,1-.21-.14V19.05a.15.15,0,0,1,.21-.13l3.55,1.92A.16.16,0,0,1,1043.46,21.11Zm1.82-5.1h-7.59a2.79,2.79,0,0,0-2.69,2.88v4.05a2.79,2.79,0,0,0,2.69,2.88h7.59a2.79,2.79,0,0,0,2.69-2.88V18.89A2.79,2.79,0,0,0,1045.28,16Z"/></clipPath><clipPath id="clip-path-2" transform="translate(-1029 -8)"><rect class="cls-1" width="1440" height="3839"/></clipPath></defs><title>icon youtube</title><g id="Layer_2" data-name="Layer 2"><g id="Layer_1-2" data-name="Layer 1"><circle class="cls-2" cx="13" cy="13" r="12"/><g class="cls-3"><g class="cls-4"><rect class="cls-5" x="1" y="3.01" width="22.97" height="19.81"/></g></g></g></g></svg>