<svg xmlns="http://www.w3.org/2000/svg" xmlns:xlink="http://www.w3.org/1999/xlink" viewBox="0 0 54 54"><defs><style>.cls-1,.cls-5{fill:none;}.cls-2{clip-path:url(#clip-path);}.cls-3{clip-path:url(#clip-path-2);}.cls-4{fill:#fff;}.cls-5{stroke:#f27380;stroke-miterlimit:10;stroke-width:4px;}.cls-6{clip-path:url(#clip-path-5);}.cls-7{fill:#f27380;}.cls-8{clip-path:url(#clip-path-7);}.cls-9{fill:#d74c5b;}.cls-10{clip-path:url(#clip-path-9);}</style><clipPath id="clip-path" transform="translate(-221 -358)"><rect class="cls-1" x="223" y="360" width="50" height="50" rx="8" ry="8"/></clipPath><clipPath id="clip-path-2" transform="translate(-221 -358)"><rect class="cls-1" width="414" height="736"/></clipPath><clipPath id="clip-path-5" transform="translate(-221 -358)"><path class="cls-1" d="M265,397.55l-14.09-14.09L234.45,367h-1.29l-.26.67a11.74,11.74,0,0,0-.86,5.21,7.39,7.39,0,0,0,2.06,4.7L247,390.43l1.7-1.7L260.53,402a3.16,3.16,0,0,0,4.47-4.47Z"/></clipPath><clipPath id="clip-path-7" transform="translate(-221 -358)"><path class="cls-1" d="M241,387.45l-10.07,10.07A3.16,3.16,0,0,0,235.4,402l10.07-10.06Z"/></clipPath><clipPath id="clip-path-9" transform="translate(-221 -358)"><path class="cls-1" d="M264.4,373l-5.71,5.71-1.48-1.49,5.7-5.71L261.43,370l-5.71,5.71-1.49-1.49,5.71-5.71L258.45,367,251,374.47a5.27,5.27,0,0,0-1.53,3.41,2.92,2.92,0,0,1-.22.95l4.84,4.84a2.86,2.86,0,0,1,.95-.22,5.27,5.27,0,0,0,3.41-1.53l7.44-7.45Z"/></clipPath></defs><title>Vào bếp</title><g id="Layer_2" data-name="Layer 2"><g id="Layer_1-2" data-name="Layer 1"><g class="cls-2"><g class="cls-3"><rect class="cls-4" x="2" y="2" width="50" height="50" rx="8" ry="8"/></g></g><g class="cls-2"><g class="cls-3"><rect class="cls-5" x="2" y="2" width="50" height="50" rx="8" ry="8"/></g></g><g class="cls-6"><g class="cls-3"><rect class="cls-7" x="6.01" y="4" width="43.91" height="45.93"/></g></g><g class="cls-8"><g class="cls-3"><rect class="cls-9" x="4.01" y="24.45" width="25.46" height="25.45"/></g></g><g class="cls-10"><g class="cls-3"><rect class="cls-9" x="23.25" y="4.03" width="26.64" height="26.64"/></g></g></g></g></svg>