<svg xmlns="http://www.w3.org/2000/svg" xmlns:xlink="http://www.w3.org/1999/xlink" viewBox="0 0 54 54"><defs><style>.cls-1,.cls-5{fill:none;}.cls-2{clip-path:url(#clip-path);}.cls-3{clip-path:url(#clip-path-2);}.cls-4{fill:#fff;}.cls-5{stroke:#f27380;stroke-miterlimit:10;stroke-width:4px;}.cls-6{clip-path:url(#clip-path-5);}.cls-7{fill:#d74c5b;}.cls-8{clip-path:url(#clip-path-7);}.cls-9{fill:#f27380;}</style><clipPath id="clip-path" transform="translate(-31 -228)"><rect class="cls-1" x="33" y="230" width="50" height="50" rx="8" ry="8"/></clipPath><clipPath id="clip-path-2" transform="translate(-31 -228)"><rect class="cls-1" width="414" height="736"/></clipPath><clipPath id="clip-path-5" transform="translate(-31 -228)"><path class="cls-1" d="M70.43,255.85a15.27,15.27,0,0,0-3.42-4,14.13,14.13,0,0,1-4.74-10.42c0-.19,0-.37,0-.54a14.1,14.1,0,0,1,.71-3.8,15.7,15.7,0,0,0-3.27,2.19,15.42,15.42,0,0,0-2.72,3,13.88,13.88,0,0,0-2.36,7.54s0,.1,0,.14a13.71,13.71,0,0,0,2.14,7.32l.53.8a9.79,9.79,0,0,1-1.25-.8,8.94,8.94,0,0,1-3.73-6.45l-.39.23a11.8,11.8,0,0,0-5.2,6.22,10.13,10.13,0,0,0-.61,3.53c0,6,5,11,11.39,11.6a12.81,12.81,0,0,0,1.39.08,15.74,15.74,0,0,0,1.82-.12A12.6,12.6,0,0,0,71,264.79,10.79,10.79,0,0,0,70.43,255.85Z"/></clipPath><clipPath id="clip-path-7" transform="translate(-31 -228)"><path class="cls-1" d="M68.94,260.89a11,11,0,0,1-.73,3.9A12.62,12.62,0,0,1,58,272.45l-.47,0c-6.4-.62-11.39-5.57-11.39-11.6a10.13,10.13,0,0,1,.61-3.53,11.8,11.8,0,0,1,5.2-6.22l.39-.23a8.9,8.9,0,0,0,3.73,6.45,9.79,9.79,0,0,0,1.25.8l-.53-.8A13.71,13.71,0,0,1,54.63,250s0-.09,0-.14A13.88,13.88,0,0,1,57,242.36a15.42,15.42,0,0,1,2.72-3,10.87,10.87,0,0,0-.18,1.61c0,.17,0,.35,0,.54a14.11,14.11,0,0,0,4.73,10.41,15.29,15.29,0,0,1,3.42,4A10.67,10.67,0,0,1,68.94,260.89Z"/></clipPath></defs><title>Trending</title><g id="Layer_2" data-name="Layer 2"><g id="Layer_1-2" data-name="Layer 1"><g class="cls-2"><g class="cls-3"><rect class="cls-4" x="2" y="2" width="50" height="50" rx="8" ry="8"/></g></g><g class="cls-2"><g class="cls-3"><rect class="cls-5" x="2" y="2" width="50" height="50" rx="8" ry="8"/></g></g><g class="cls-6"><g class="cls-3"><rect class="cls-7" x="10.12" y="4.13" width="35.56" height="45.43"/></g></g><g class="cls-8"><g class="cls-3"><rect class="cls-9" x="10.12" y="6.32" width="32.82" height="43.17"/></g></g></g></g></svg>