<svg xmlns="http://www.w3.org/2000/svg" xmlns:xlink="http://www.w3.org/1999/xlink" viewBox="0 0 54 54"><defs><style>.cls-1,.cls-5{fill:none;}.cls-2{clip-path:url(#clip-path);}.cls-3{clip-path:url(#clip-path-2);}.cls-4{fill:#fff;}.cls-5{stroke:#f27380;stroke-miterlimit:10;stroke-width:4px;}.cls-6{clip-path:url(#clip-path-5);}.cls-7{fill:#f27380;}.cls-8{clip-path:url(#clip-path-7);}.cls-9{fill:#d74c5b;}.cls-10{clip-path:url(#clip-path-9);}.cls-11{clip-path:url(#clip-path-11);}.cls-12{clip-path:url(#clip-path-13);}.cls-13{clip-path:url(#clip-path-15);}.cls-14{clip-path:url(#clip-path-17);}</style><clipPath id="clip-path" transform="translate(-31 -293)"><rect class="cls-1" x="33" y="295" width="50" height="50" rx="8" ry="8"/></clipPath><clipPath id="clip-path-2" transform="translate(-31 -293)"><rect class="cls-1" width="414" height="736"/></clipPath><clipPath id="clip-path-5" transform="translate(-31 -293)"><path class="cls-1" d="M40.51,319.75c0,.24,0,.48,0,.72a17.69,17.69,0,0,0,5.07,11.71c.34.34.69.67,1.06,1a17.72,17.72,0,0,0,6.15,3.47,18,18,0,0,0,4.73.84H59a18,18,0,0,0,4.73-.84,17.72,17.72,0,0,0,6.15-3.47c.37-.32.72-.65,1.06-1A17.78,17.78,0,0,0,76,320.47c0-.24,0-.48,0-.72s0-.49,0-.73a17.69,17.69,0,0,0-5.07-11.7c-.34-.35-.69-.68-1.06-1a17.72,17.72,0,0,0-6.15-3.47A18,18,0,0,0,59,302H57.53a18,18,0,0,0-4.73.84,17.72,17.72,0,0,0-6.15,3.47c-.37.32-.72.65-1.06,1A17.64,17.64,0,0,0,40.52,319C40.51,319.26,40.51,319.5,40.51,319.75Z"/></clipPath><clipPath id="clip-path-7" transform="translate(-31 -293)"><path class="cls-1" d="M58.25,337.49a17.75,17.75,0,1,0,0-35.49c5.91.12,10.67,8,10.67,17.75S64.16,337.37,58.25,337.49Z"/></clipPath><clipPath id="clip-path-9" transform="translate(-31 -293)"><path class="cls-1" d="M51.13,332.64c1.9,3.28,4.39,5.08,7,5.08s5.1-1.8,7-5.08a28.16,28.16,0,0,0,0-25.53c-1.9-3.27-4.39-5.07-7-5.07s-5.1,1.8-7,5.07a28.07,28.07,0,0,0,0,25.53Zm-1.27-26.26a14.41,14.41,0,0,1,2.78-3.51,18,18,0,0,1,11,0,14.41,14.41,0,0,1,2.78,3.51,29.58,29.58,0,0,1,0,27,14.41,14.41,0,0,1-2.78,3.51,18,18,0,0,1-11,0,14.41,14.41,0,0,1-2.78-3.51,29.58,29.58,0,0,1,0-27Z"/></clipPath><clipPath id="clip-path-11" transform="translate(-31 -293)"><path class="cls-1" d="M45.37,332.39c.34.35.7.69,1.07,1a17.13,17.13,0,0,1,23.38,0c.37-.32.72-.66,1.06-1l0,0a18.61,18.61,0,0,0-25.47,0Z"/></clipPath><clipPath id="clip-path-13" transform="translate(-31 -293)"><path class="cls-1" d="M45.37,307.36l0,0a18.58,18.58,0,0,0,25.47,0l0,0c-.35-.35-.7-.68-1.07-1a17.15,17.15,0,0,1-23.38,0C46.07,306.68,45.71,307,45.37,307.36Z"/></clipPath><clipPath id="clip-path-15" transform="translate(-31 -293)"><path class="cls-1" d="M40.26,319.88c0,.24,0,.49,0,.73H76c0-.24,0-.49,0-.73s0-.49,0-.73H40.27C40.26,319.39,40.26,319.63,40.26,319.88Z"/></clipPath><clipPath id="clip-path-17" transform="translate(-31 -293)"><path class="cls-1" d="M57.4,302v35.72h1.46V302H57.4Z"/></clipPath></defs><title>Đời sống</title><g id="Layer_2" data-name="Layer 2"><g id="Layer_1-2" data-name="Layer 1"><g class="cls-2"><g class="cls-3"><rect class="cls-4" x="2" y="2" width="50" height="50" rx="8" ry="8"/></g></g><g class="cls-2"><g class="cls-3"><rect class="cls-5" x="2" y="2" width="50" height="50" rx="8" ry="8"/></g></g><g class="cls-6"><g class="cls-3"><rect class="cls-7" x="4.51" y="4" width="45.49" height="45.49"/></g></g><g class="cls-8"><g class="cls-3"><rect class="cls-9" x="22.25" y="4" width="27.75" height="45.49"/></g></g><g class="cls-10"><g class="cls-3"><rect class="cls-4" x="10.6" y="4.01" width="33.06" height="45.74"/></g></g><g class="cls-11"><g class="cls-3"><rect class="cls-4" x="9.37" y="29.33" width="35.51" height="16.07"/></g></g><g class="cls-12"><g class="cls-3"><rect class="cls-4" x="9.37" y="8.36" width="35.51" height="16.07"/></g></g><g class="cls-13"><g class="cls-3"><rect class="cls-4" x="4.26" y="21.15" width="45.74" height="11.46"/></g></g><g class="cls-14"><g class="cls-3"><rect class="cls-4" x="21.4" y="4.01" width="11.46" height="45.74"/></g></g></g></g></svg>