<svg xmlns="http://www.w3.org/2000/svg" xmlns:xlink="http://www.w3.org/1999/xlink" viewBox="0 0 54 54"><defs><style>.cls-1,.cls-5{fill:none;}.cls-2{clip-path:url(#clip-path);}.cls-3{clip-path:url(#clip-path-2);}.cls-4{fill:#fff;}.cls-5{stroke:#f27380;stroke-miterlimit:10;stroke-width:4px;}.cls-6{clip-path:url(#clip-path-5);}.cls-7{fill:#d74c5b;}.cls-8{clip-path:url(#clip-path-7);}.cls-9{fill:#f27380;}</style><clipPath id="clip-path" transform="translate(-221 -293)"><rect class="cls-1" x="223" y="295" width="50" height="50" rx="8" ry="8"/></clipPath><clipPath id="clip-path-2" transform="translate(-221 -293)"><rect class="cls-1" width="414" height="736"/></clipPath><clipPath id="clip-path-5" transform="translate(-221 -293)"><path class="cls-1" d="M240.27,339a5.29,5.29,0,0,0,5.28-5.27V317.51l14.76-5.6v11.3a5.2,5.2,0,0,0-3.16-1.08,5.27,5.27,0,1,0,5.27,5.27V304.05a1.06,1.06,0,0,0-.45-.86,1,1,0,0,0-1-.12l-16.88,6.33a1,1,0,0,0-.68,1v19.15a5.27,5.27,0,1,0-3.17,9.47Z"/></clipPath><clipPath id="clip-path-7" transform="translate(-221 -293)"><path class="cls-1" d="M238.27,337a5.29,5.29,0,0,0,5.28-5.27V315.51l14.76-5.6v11.3a5.2,5.2,0,0,0-3.16-1.08,5.27,5.27,0,1,0,5.27,5.27V302.05a1.06,1.06,0,0,0-.45-.86,1,1,0,0,0-1-.12l-16.88,6.33a1,1,0,0,0-.68,1v19.15a5.27,5.27,0,1,0-3.17,9.47Z"/></clipPath></defs><title>Âm nhạc</title><g id="Layer_2" data-name="Layer 2"><g id="Layer_1-2" data-name="Layer 1"><g class="cls-2"><g class="cls-3"><rect class="cls-4" x="2" y="2" width="50" height="50" rx="8" ry="8"/></g></g><g class="cls-2"><g class="cls-3"><rect class="cls-5" x="2" y="2" width="50" height="50" rx="8" ry="8"/></g></g><g class="cls-6"><g class="cls-3"><rect class="cls-7" x="9" y="5" width="37.42" height="46"/></g></g><g class="cls-8"><g class="cls-3"><rect class="cls-9" x="7" y="3" width="37.42" height="46"/></g></g></g></g></svg>