<svg xmlns="http://www.w3.org/2000/svg" xmlns:xlink="http://www.w3.org/1999/xlink" viewBox="0 0 54 54"><defs><style>.cls-1,.cls-5{fill:none;}.cls-2{clip-path:url(#clip-path);}.cls-3{clip-path:url(#clip-path-2);}.cls-4{fill:#fff;}.cls-5{stroke:#f27380;stroke-miterlimit:10;stroke-width:4px;}.cls-6{clip-path:url(#clip-path-5);}.cls-7{fill:#f27380;}.cls-8{clip-path:url(#clip-path-7);}.cls-9{fill:#d74c5b;}</style><clipPath id="clip-path" transform="translate(-31 -358)"><rect class="cls-1" x="33" y="360" width="50" height="50" rx="8" ry="8"/></clipPath><clipPath id="clip-path-2" transform="translate(-31 -358)"><rect class="cls-1" width="414" height="736"/></clipPath><clipPath id="clip-path-5" transform="translate(-31 -358)"><path class="cls-1" d="M48.51,383.59A1.41,1.41,0,0,0,47.1,385v5.91a1.41,1.41,0,0,0,1.41,1.4h7a1.41,1.41,0,1,0,0-2.81H49.91v-3.09h5.63A1.41,1.41,0,0,0,57,385v-5.91a1.41,1.41,0,0,0-1.41-1.4h-7a1.41,1.41,0,1,0,0,2.81h5.62v3.09Zm12-5.9a1.41,1.41,0,0,0-1.41,1.4V385a1.41,1.41,0,0,0,1.41,1.41h5.63v4.5a1.41,1.41,0,0,0,2.81,0V379.09a1.41,1.41,0,0,0-2.81,0v4.5H61.87v-4.5A1.41,1.41,0,0,0,60.46,377.69ZM76,385a18,18,0,0,1-29.66,13.71v2a1.41,1.41,0,0,1-2.82,0V395.4A1.41,1.41,0,0,1,44.93,394h5.34a1.41,1.41,0,1,1,0,2.81H48.44A15.19,15.19,0,1,0,42.81,385a15.3,15.3,0,0,0,.64,4.37,1.4,1.4,0,0,1-2.69.81A17.8,17.8,0,0,1,40,385a18,18,0,0,1,36,0Z"/></clipPath><clipPath id="clip-path-7" transform="translate(-31 -358)"><path class="cls-1" d="M76,385a18,18,0,0,1-29.66,13.71v2a1.41,1.41,0,0,1-2.82,0V395.4A1.41,1.41,0,0,1,44.93,394h5.34a1.41,1.41,0,1,1,0,2.81H48.44A15.19,15.19,0,1,0,42.81,385a15.3,15.3,0,0,0,.64,4.37,1.4,1.4,0,0,1-2.69.81A17.8,17.8,0,0,1,40,385a18,18,0,0,1,36,0Z"/></clipPath></defs><title>Tin tức 24h</title><g id="Layer_2" data-name="Layer 2"><g id="Layer_1-2" data-name="Layer 1"><g class="cls-2"><g class="cls-3"><rect class="cls-4" x="2" y="2" width="50" height="50" rx="8" ry="8"/></g></g><g class="cls-2"><g class="cls-3"><rect class="cls-5" x="2" y="2" width="50" height="50" rx="8" ry="8"/></g></g><g class="cls-6"><g class="cls-3"><rect class="cls-7" x="4" y="4" width="46" height="46"/></g></g><g class="cls-8"><g class="cls-3"><rect class="cls-9" x="4" y="4" width="46" height="46"/></g></g></g></g></svg>